<svg width="1118" height="421" viewBox="0 0 1118 421" fill="none" xmlns="http://www.w3.org/2000/svg">
<mask id="mask0_9024_7115" style="mask-type:luminance" maskUnits="userSpaceOnUse" x="27" y="57" width="256" height="311">
<path d="M27 57H283V367.75H27V57Z" fill="white"></path>
</mask>
<g mask="url(#mask0_9024_7115)">
<path d="M282.367 329.948C268.451 341.922 252.867 351.109 235.612 357.516C218.357 363.917 200.477 367.125 181.966 367.125C167.773 367.125 154.065 365.245 140.846 361.484C127.768 357.865 115.451 352.714 103.898 346.031C92.487 339.208 82.0547 331.063 72.5911 321.594C63.1276 312.13 54.987 301.688 48.1693 290.271C41.487 278.714 36.2682 266.391 32.513 253.307C28.8932 240.078 27.0859 226.365 27.0859 212.167C27.0859 197.964 28.8932 184.25 32.513 171.026C36.2682 157.797 41.487 145.474 48.1693 134.057C54.987 122.505 63.1276 111.995 72.5911 102.526C82.0547 93.0573 92.487 84.9844 103.898 78.3021C115.451 71.4792 127.768 66.2552 140.846 62.6354C154.065 58.8802 167.773 57 181.966 57C200.477 57 218.357 60.2031 235.612 66.6042C252.867 72.8698 268.451 82.0573 282.367 94.1719L250.643 146.38C241.872 136.911 231.508 129.672 219.539 124.661C207.57 119.51 195.049 116.938 181.966 116.938C168.747 116.938 156.362 119.443 144.81 124.453C133.263 129.464 123.174 136.286 114.544 144.922C105.919 153.411 99.1016 163.505 94.0911 175.198C89.0807 186.755 86.5755 199.078 86.5755 212.167C86.5755 225.25 89.0807 237.573 94.0911 249.13C99.1016 260.547 105.919 270.568 114.544 279.203C123.174 287.833 133.263 294.656 144.81 299.667C156.362 304.682 168.747 307.188 181.966 307.188C195.049 307.188 207.57 304.682 219.539 299.667C231.508 294.516 241.872 287.208 250.643 277.74L282.367 329.948Z" fill="white"></path>
</g>
<path d="M248.021 212.224C248.021 218.417 247.203 224.396 245.568 230.167C243.99 235.875 241.75 241.25 238.844 246.292C235.932 251.271 232.422 255.823 228.302 259.953C224.182 264.083 219.641 267.635 214.677 270.609C209.708 273.526 204.349 275.771 198.594 277.349C192.839 278.99 186.875 279.807 180.698 279.807C174.516 279.807 168.552 278.99 162.797 277.349C157.104 275.771 151.745 273.526 146.719 270.609C141.75 267.635 137.208 264.083 133.089 259.953C128.969 255.823 125.427 251.271 122.458 246.292C119.552 241.25 117.281 235.875 115.646 230.167C114.068 224.396 113.281 218.417 113.281 212.224C113.281 206.026 114.068 200.047 115.646 194.276C117.281 188.51 119.552 183.135 122.458 178.156C125.427 173.177 128.969 168.62 133.089 164.49C137.208 160.359 141.75 156.838 146.719 153.927C151.745 151.01 157.104 148.766 162.797 147.182C168.552 145.547 174.516 144.724 180.698 144.724C186.875 144.724 192.839 145.547 198.594 147.182C204.349 148.766 209.708 151.01 214.677 153.927C219.641 156.838 224.182 160.359 228.302 164.49C232.422 168.62 235.932 173.177 238.844 178.156C241.75 183.135 243.99 188.51 245.568 194.276C247.203 200.047 248.021 206.026 248.021 212.224ZM222.125 212.224C222.125 206.516 221.036 201.141 218.854 196.099C216.672 191 213.708 186.594 209.953 182.891C206.255 179.125 201.865 176.151 196.776 173.963C191.75 171.776 186.391 170.687 180.698 170.687C174.943 170.687 169.552 171.776 164.526 173.963C159.495 176.151 155.104 179.125 151.349 182.891C147.594 186.594 144.625 191 142.448 196.099C140.266 201.141 139.177 206.516 139.177 212.224C139.177 217.932 140.266 223.302 142.448 228.344C144.625 233.323 147.594 237.698 151.349 241.463C155.104 245.224 159.495 248.203 164.526 250.385C169.552 252.573 174.943 253.667 180.698 253.667C186.391 253.667 191.75 252.573 196.776 250.385C201.865 248.203 206.255 245.224 209.953 241.463C213.708 237.698 216.672 233.323 218.854 228.344C221.036 223.302 222.125 217.932 222.125 212.224Z" fill="white"></path>
<path d="M291.245 172.495V224.781H317.323C320.896 224.781 324.255 224.115 327.406 222.776C330.557 221.38 333.313 219.495 335.672 217.13C338.036 214.76 339.885 211.995 341.219 208.839C342.609 205.62 343.307 202.219 343.307 198.641C343.307 195.057 342.609 191.687 341.219 188.526C339.885 185.307 338.036 182.516 335.672 180.146C333.313 177.776 330.557 175.927 327.406 174.589C324.255 173.193 320.896 172.495 317.323 172.495H291.245ZM291.245 276.974H265.172V146.354H317.323C322.109 146.354 326.714 146.99 331.13 148.266C335.552 149.479 339.672 151.24 343.49 153.547C347.365 155.797 350.875 158.526 354.026 161.745C357.24 164.906 359.964 168.427 362.203 172.312C364.505 176.198 366.266 180.359 367.474 184.792C368.745 189.224 369.38 193.839 369.38 198.641C369.38 205.802 368.021 212.573 365.292 218.953C362.568 225.266 358.844 230.792 354.115 235.531C349.396 240.266 343.849 244 337.495 246.734C331.193 249.464 324.469 250.833 317.323 250.833H291.245V276.974Z" fill="white"></path>
<path d="M410.878 172.495V224.781H436.951C440.529 224.781 443.888 224.115 447.039 222.776C450.185 221.38 452.94 219.495 455.305 217.13C457.669 214.76 459.513 211.995 460.846 208.839C462.237 205.62 462.935 202.219 462.935 198.641C462.935 195.057 462.237 191.687 460.846 188.526C459.513 185.307 457.669 182.516 455.305 180.146C452.94 177.776 450.185 175.927 447.039 174.589C443.888 173.193 440.529 172.495 436.951 172.495H410.878ZM410.878 276.974H384.805V146.354H436.951C441.737 146.354 446.341 146.99 450.763 148.266C455.185 149.479 459.305 151.24 463.117 153.547C466.997 155.797 470.508 158.526 473.659 161.745C476.867 164.906 479.596 168.427 481.836 172.312C484.138 176.198 485.893 180.359 487.107 184.792C488.378 189.224 489.013 193.839 489.013 198.641C489.013 205.802 487.648 212.573 484.924 218.953C482.201 225.266 478.471 230.792 473.747 235.531C469.023 240.266 463.482 244 457.122 246.734C450.826 249.464 444.102 250.833 436.951 250.833H410.878V276.974Z" fill="white"></path>
<path d="M593.651 276.974H504.344V146.354H593.651V172.495H530.417V198.641H573.208V224.781H530.417V250.833H593.651V276.974Z" fill="white"></path>
<path d="M637.948 172.495V224.781H664.026C667.599 224.781 670.964 224.115 674.109 222.776C677.26 221.38 680.016 219.495 682.375 217.13C684.74 214.76 686.589 211.995 687.922 208.839C689.313 205.62 690.01 202.219 690.01 198.641C690.01 195.057 689.313 191.687 687.922 188.526C686.589 185.307 684.74 182.516 682.375 180.146C680.016 177.776 677.26 175.927 674.109 174.589C670.964 173.193 667.599 172.495 664.026 172.495H637.948ZM637.948 276.974H611.875V146.354H664.026C668.813 146.354 673.411 146.99 677.833 148.266C682.255 149.479 686.375 151.24 690.193 153.547C694.068 155.797 697.578 158.526 700.734 161.745C703.943 164.906 706.667 168.427 708.906 172.312C711.208 176.198 712.964 180.359 714.177 184.792C715.448 189.224 716.083 193.839 716.083 198.641C716.083 203.13 715.51 207.505 714.359 211.755C713.271 216.005 711.661 220.042 709.542 223.87C707.484 227.693 704.943 231.219 701.911 234.437C698.88 237.656 695.49 240.448 691.734 242.818L706.182 276.974H678.469L667.115 250.651L637.948 250.833V276.974Z" fill="white"></path>
<path d="M759.328 172.495V224.781H785.401C788.974 224.781 792.339 224.115 795.49 222.776C798.641 221.38 801.396 219.495 803.755 217.13C806.12 214.76 807.969 211.995 809.297 208.839C810.693 205.62 811.385 202.219 811.385 198.641C811.385 195.057 810.693 191.687 809.297 188.526C807.969 185.307 806.12 182.516 803.755 180.146C801.396 177.776 798.641 175.927 795.49 174.589C792.339 173.193 788.974 172.495 785.401 172.495H759.328ZM759.328 276.974H733.25V146.354H785.401C790.193 146.354 794.792 146.99 799.214 148.266C803.635 149.479 807.755 151.24 811.568 153.547C815.443 155.797 818.964 158.526 822.109 161.745C825.318 164.906 828.042 168.427 830.281 172.312C832.589 176.198 834.344 180.359 835.557 184.792C836.828 189.224 837.464 193.839 837.464 198.641C837.464 205.802 836.099 212.573 833.375 218.953C830.651 225.266 826.922 230.792 822.203 235.531C817.479 240.266 811.932 244 805.573 246.734C799.271 249.464 792.552 250.833 785.401 250.833H759.328V276.974Z" fill="white"></path>
<path d="M980.482 212.224C980.482 218.417 979.664 224.396 978.023 230.167C976.451 235.875 974.206 241.25 971.299 246.292C968.393 251.271 964.878 255.823 960.763 259.953C956.643 264.083 952.102 267.635 947.133 270.609C942.169 273.526 936.81 275.771 931.055 277.349C925.299 278.99 919.331 279.807 913.154 279.807C906.977 279.807 901.013 278.99 895.258 277.349C889.56 275.771 884.206 273.526 879.174 270.609C874.211 267.635 869.669 264.083 865.549 259.953C861.43 255.823 857.888 251.271 854.919 246.292C852.013 241.25 849.737 235.875 848.102 230.167C846.529 224.396 845.742 218.417 845.742 212.224C845.742 206.026 846.529 200.047 848.102 194.276C849.737 188.51 852.013 183.135 854.919 178.156C857.888 173.177 861.43 168.62 865.549 164.49C869.669 160.359 874.211 156.838 879.174 153.927C884.206 151.01 889.56 148.766 895.258 147.182C901.013 145.547 906.977 144.724 913.154 144.724C919.331 144.724 925.299 145.547 931.055 147.182C936.81 148.766 942.169 151.01 947.133 153.927C952.102 156.838 956.643 160.359 960.763 164.49C964.878 168.62 968.393 173.177 971.299 178.156C974.206 183.135 976.451 188.51 978.023 194.276C979.664 200.047 980.482 206.026 980.482 212.224ZM954.586 212.224C954.586 206.516 953.497 201.141 951.315 196.099C949.138 191 946.164 186.594 942.409 182.891C938.716 179.125 934.326 176.151 929.237 173.963C924.211 171.776 918.846 170.687 913.154 170.687C907.398 170.687 902.008 171.776 896.987 173.963C891.956 176.151 887.565 179.125 883.81 182.891C880.055 186.594 877.086 191 874.909 196.099C872.727 201.141 871.638 206.516 871.638 212.224C871.638 217.932 872.727 223.302 874.909 228.344C877.086 233.323 880.055 237.698 883.81 241.463C887.565 245.224 891.956 248.203 896.987 250.385C902.008 252.573 907.398 253.667 913.154 253.667C918.846 253.667 924.211 252.573 929.237 250.385C934.326 248.203 938.716 245.224 942.409 241.463C946.164 237.698 949.138 233.323 951.315 228.344C953.497 223.302 954.586 217.932 954.586 212.224Z" fill="white"></path>
<path d="M1102.03 211.661C1102.03 217.677 1101.24 223.474 1099.67 229.062C1098.16 234.589 1095.97 239.781 1093.13 244.635C1090.28 249.437 1086.89 253.839 1082.95 257.844C1079.02 261.792 1074.63 265.193 1069.78 268.047C1064.93 270.901 1059.72 273.12 1054.15 274.698C1048.64 276.214 1042.89 276.974 1036.89 276.974H997.641V146.354H1036.89C1042.89 146.354 1048.64 147.141 1054.15 148.719C1059.72 150.24 1064.93 152.427 1069.78 155.281C1074.63 158.135 1079.02 161.562 1082.95 165.573C1086.89 169.521 1090.28 173.922 1093.13 178.781C1095.97 183.578 1098.16 188.771 1099.67 194.354C1101.24 199.88 1102.03 205.651 1102.03 211.661ZM1075.95 211.661C1075.95 206.26 1074.93 201.187 1072.87 196.453C1070.87 191.714 1068.08 187.583 1064.51 184.062C1060.99 180.479 1056.85 177.656 1052.06 175.594C1047.34 173.526 1042.28 172.495 1036.89 172.495H1023.9V250.833H1036.89C1042.28 250.833 1047.34 249.828 1052.06 247.828C1056.85 245.76 1060.99 242.969 1064.51 239.448C1068.08 235.865 1070.87 231.703 1072.87 226.969C1074.93 222.167 1075.95 217.068 1075.95 211.661Z" fill="white"></path>
</svg>